{
    "asset" : {
        "generator" : "Khronos glTF Blender I/O v1.1.46",
        "version" : "2.0"
    },
    "scene" : 0,
    "scenes" : [
        {
            "name" : "Scene",
            "nodes" : [
                0,
                1,
                2,
                3
            ]
        }
    ],
    "nodes" : [
        {
            "name" : "Light",
            "rotation" : [
                0.16907575726509094,
                0.7558803558349609,
                -0.27217137813568115,
                0.570947527885437
            ],
            "translation" : [
                4.076245307922363,
                5.903861999511719,
                -1.0054539442062378
            ]
        },
        {
            "name" : "Camera",
            "rotation" : [
                0.483536034822464,
                0.33687159419059753,
                -0.20870360732078552,
                0.7804827094078064
            ],
            "translation" : [
                7.358891487121582,
                4.958309173583984,
                6.925790786743164
            ]
        },
        {
            "mesh" : 0,
            "name" : "node-0.001",
            "rotation" : [
                1,
                0,
                0,
                -1.3435885648505064e-07
            ],
            "translation" : [
                0,
                0.014103412628173828,
                0
            ]
        },
        {
            "mesh" : 1,
            "name" : "node-0",
            "rotation" : [
                1,
                0,
                0,
                -1.3435885648505064e-07
            ],
            "scale" : [
                3.5,
                3.5,
                3.5
            ],
            "translation" : [
                -0.08442338556051254,
                3.4419052600860596,
                1.6729546785354614
            ]
        }
    ],
    "materials" : [
        {
            "doubleSided" : true,
            "emissiveFactor" : [
                0,
                0,
                0
            ],
            "name" : "Astronaut_mat.002",
            "pbrMetallicRoughness" : {
                "baseColorFactor" : [
                    0.5,
                    0.5,
                    0.5,
                    1
                ],
                "baseColorTexture" : {
                    "index" : 0,
                    "texCoord" : 0
                },
                "metallicFactor" : 0,
                "roughnessFactor" : 0.9699476361274719
            }
        },
        {
            "doubleSided" : true,
            "emissiveFactor" : [
                0,
                0,
                0
            ],
            "name" : "0.002",
            "pbrMetallicRoughness" : {
                "baseColorFactor" : [
                    0.6399999856948853,
                    0.6399999856948853,
                    0.6399999856948853,
                    1
                ],
                "baseColorTexture" : {
                    "index" : 1,
                    "texCoord" : 0
                },
                "metallicFactor" : 0,
                "roughnessFactor" : 0.7448017597198486
            }
        }
    ],
    "meshes" : [
        {
            "name" : "buffer-0-mesh-0.005",
            "primitives" : [
                {
                    "attributes" : {
                        "POSITION" : 0,
                        "NORMAL" : 1,
                        "TEXCOORD_0" : 2
                    },
                    "indices" : 3,
                    "material" : 0
                }
            ]
        },
        {
            "name" : "buffer-0-mesh-0.004",
            "primitives" : [
                {
                    "attributes" : {
                        "POSITION" : 4,
                        "NORMAL" : 5,
                        "TEXCOORD_0" : 6
                    },
                    "indices" : 7,
                    "material" : 1
                }
            ]
        }
    ],
    "textures" : [
        {
            "source" : 0
        },
        {
            "source" : 1
        }
    ],
    "images" : [
        {
            "mimeType" : "image/png",
            "name" : "Image_0",
            "uri" : "astronaut.png"
        },
        {
            "mimeType" : "image/png",
            "name" : "model_face",
            "uri" : "texture_face.png"
        }
    ],
    "accessors" : [
        {
            "bufferView" : 0,
            "componentType" : 5126,
            "count" : 4698,
            "max" : [
                1.1196980476379395,
                0,
                0.7358450293540955
            ],
            "min" : [
                -1.1196980476379395,
                -4.021694183349609,
                -0.7111790180206299
            ],
            "type" : "VEC3"
        },
        {
            "bufferView" : 1,
            "componentType" : 5126,
            "count" : 4698,
            "type" : "VEC3"
        },
        {
            "bufferView" : 2,
            "componentType" : 5126,
            "count" : 4698,
            "type" : "VEC2"
        },
        {
            "bufferView" : 3,
            "componentType" : 5123,
            "count" : 4698,
            "type" : "SCALAR"
        },
        {
            "bufferView" : 4,
            "componentType" : 5126,
            "count" : 494,
            "max" : [
                0.1064630001783371,
                0.05944899842143059,
                0.4286760091781616
            ],
            "min" : [
                -0.052195001393556595,
                -0.11351300030946732,
                0.3308599889278412
            ],
            "type" : "VEC3"
        },
        {
            "bufferView" : 5,
            "componentType" : 5126,
            "count" : 494,
            "type" : "VEC3"
        },
        {
            "bufferView" : 6,
            "componentType" : 5126,
            "count" : 494,
            "type" : "VEC2"
        },
        {
            "bufferView" : 7,
            "componentType" : 5123,
            "count" : 2694,
            "type" : "SCALAR"
        }
    ],
    "bufferViews" : [
        {
            "buffer" : 0,
            "byteLength" : 56376,
            "byteOffset" : 0
        },
        {
            "buffer" : 0,
            "byteLength" : 56376,
            "byteOffset" : 56376
        },
        {
            "buffer" : 0,
            "byteLength" : 37584,
            "byteOffset" : 112752
        },
        {
            "buffer" : 0,
            "byteLength" : 9396,
            "byteOffset" : 150336
        },
        {
            "buffer" : 0,
            "byteLength" : 5928,
            "byteOffset" : 159732
        },
        {
            "buffer" : 0,
            "byteLength" : 5928,
            "byteOffset" : 165660
        },
        {
            "buffer" : 0,
            "byteLength" : 3952,
            "byteOffset" : 171588
        },
        {
            "buffer" : 0,
            "byteLength" : 5388,
            "byteOffset" : 175540
        }
    ],
    "buffers" : [
        {
            "byteLength" : 180928,
            "uri" : "astronaut.bin"
        }
    ]
}
